<mxfile host="app.diagrams.net" agent="Mozilla/5.0 (Windows NT 10.0; Win64; x64) AppleWebKit/537.36 (KHTML, like Gecko) Chrome/131.0.0.0 Safari/537.36" version="24.8.9">
  <diagram name="Page-1" id="wNqh1YhbOnpCm8cZVGuC">
    <mxGraphModel dx="928" dy="477" grid="1" gridSize="10" guides="1" tooltips="1" connect="1" arrows="1" fold="1" page="1" pageScale="1" pageWidth="850" pageHeight="1100" math="0" shadow="0">
      <root>
        <mxCell id="0" />
        <mxCell id="1" parent="0" />
        <mxCell id="FPT61AdjoI3Xn6298IMu-4" value="" style="edgeStyle=orthogonalEdgeStyle;rounded=0;orthogonalLoop=1;jettySize=auto;html=1;" edge="1" parent="1" source="FPT61AdjoI3Xn6298IMu-2" target="FPT61AdjoI3Xn6298IMu-3">
          <mxGeometry relative="1" as="geometry" />
        </mxCell>
        <mxCell id="FPT61AdjoI3Xn6298IMu-2" value="START" style="rounded=1;whiteSpace=wrap;html=1;arcSize=50;" vertex="1" parent="1">
          <mxGeometry x="405" y="30" width="70" height="30" as="geometry" />
        </mxCell>
        <mxCell id="FPT61AdjoI3Xn6298IMu-6" value="" style="edgeStyle=orthogonalEdgeStyle;rounded=0;orthogonalLoop=1;jettySize=auto;html=1;" edge="1" parent="1" source="FPT61AdjoI3Xn6298IMu-3" target="FPT61AdjoI3Xn6298IMu-5">
          <mxGeometry relative="1" as="geometry" />
        </mxCell>
        <mxCell id="FPT61AdjoI3Xn6298IMu-3" value="&quot;Find triangle area&quot;" style="shape=parallelogram;perimeter=parallelogramPerimeter;whiteSpace=wrap;html=1;fixedSize=1;rounded=1;arcSize=0;" vertex="1" parent="1">
          <mxGeometry x="355" y="90" width="170" height="40" as="geometry" />
        </mxCell>
        <mxCell id="FPT61AdjoI3Xn6298IMu-9" value="" style="edgeStyle=orthogonalEdgeStyle;rounded=0;orthogonalLoop=1;jettySize=auto;html=1;" edge="1" parent="1" source="FPT61AdjoI3Xn6298IMu-5" target="FPT61AdjoI3Xn6298IMu-8">
          <mxGeometry relative="1" as="geometry" />
        </mxCell>
        <mxCell id="FPT61AdjoI3Xn6298IMu-5" value="&quot; Enter [ H &amp;amp; W ] : &quot;" style="shape=parallelogram;perimeter=parallelogramPerimeter;whiteSpace=wrap;html=1;fixedSize=1;rounded=1;arcSize=0;" vertex="1" parent="1">
          <mxGeometry x="370" y="160" width="140" height="40" as="geometry" />
        </mxCell>
        <mxCell id="FPT61AdjoI3Xn6298IMu-11" value="" style="edgeStyle=orthogonalEdgeStyle;rounded=0;orthogonalLoop=1;jettySize=auto;html=1;" edge="1" parent="1" source="FPT61AdjoI3Xn6298IMu-8" target="FPT61AdjoI3Xn6298IMu-10">
          <mxGeometry relative="1" as="geometry" />
        </mxCell>
        <mxCell id="FPT61AdjoI3Xn6298IMu-8" value="ใส่ค่าให้กับ H และ W" style="shape=parallelogram;perimeter=parallelogramPerimeter;whiteSpace=wrap;html=1;fixedSize=1;rounded=1;arcSize=0;" vertex="1" parent="1">
          <mxGeometry x="360" y="240" width="160" height="40" as="geometry" />
        </mxCell>
        <mxCell id="FPT61AdjoI3Xn6298IMu-13" value="" style="edgeStyle=orthogonalEdgeStyle;rounded=0;orthogonalLoop=1;jettySize=auto;html=1;" edge="1" parent="1" source="FPT61AdjoI3Xn6298IMu-10" target="FPT61AdjoI3Xn6298IMu-12">
          <mxGeometry relative="1" as="geometry" />
        </mxCell>
        <mxCell id="FPT61AdjoI3Xn6298IMu-10" value="กำหนดให้ TriArea = 1/2 * W * H" style="whiteSpace=wrap;html=1;rounded=1;arcSize=0;" vertex="1" parent="1">
          <mxGeometry x="340" y="310" width="200" height="40" as="geometry" />
        </mxCell>
        <mxCell id="FPT61AdjoI3Xn6298IMu-15" value="" style="edgeStyle=orthogonalEdgeStyle;rounded=0;orthogonalLoop=1;jettySize=auto;html=1;" edge="1" parent="1" source="FPT61AdjoI3Xn6298IMu-12" target="FPT61AdjoI3Xn6298IMu-14">
          <mxGeometry relative="1" as="geometry" />
        </mxCell>
        <mxCell id="FPT61AdjoI3Xn6298IMu-12" value="&quot;Triangle Area : #ค่าตัวแปร TriArea&quot;&amp;nbsp;" style="shape=parallelogram;perimeter=parallelogramPerimeter;whiteSpace=wrap;html=1;fixedSize=1;rounded=1;arcSize=0;" vertex="1" parent="1">
          <mxGeometry x="335" y="390" width="210" height="60" as="geometry" />
        </mxCell>
        <mxCell id="FPT61AdjoI3Xn6298IMu-14" value="END" style="whiteSpace=wrap;html=1;rounded=1;arcSize=50;" vertex="1" parent="1">
          <mxGeometry x="405" y="490" width="70" height="30" as="geometry" />
        </mxCell>
      </root>
    </mxGraphModel>
  </diagram>
</mxfile>
